<svg width="171" height="40" viewBox="0 0 171 40" fill="none" xmlns="http://www.w3.org/2000/svg">
<path d="M63.1064 21.0907C63.1064 21.4746 63.0824 21.8744 63.0345 22.2903H53.7501C53.8141 23.1219 54.078 23.7617 54.5418 24.2095C55.0216 24.6413 55.6054 24.8572 56.2931 24.8572C57.3167 24.8572 58.0284 24.4254 58.4283 23.5618H62.7946C62.5706 24.4414 62.1628 25.2331 61.571 25.9368C60.9953 26.6405 60.2675 27.1923 59.3879 27.5922C58.5082 27.992 57.5246 28.1919 56.4371 28.1919C55.1256 28.1919 53.958 27.912 52.9344 27.3523C51.9108 26.7925 51.1112 25.9928 50.5354 24.9532C49.9596 23.9136 49.6717 22.6981 49.6717 21.3066C49.6717 19.9152 49.9516 18.6997 50.5114 17.6601C51.0872 16.6205 51.8869 15.8208 52.9105 15.261C53.9341 14.7013 55.1096 14.4214 56.4371 14.4214C57.7325 14.4214 58.8841 14.6933 59.8917 15.237C60.8993 15.7808 61.683 16.5565 62.2428 17.5641C62.8185 18.5717 63.1064 19.7473 63.1064 21.0907ZM58.9081 20.0112C58.9081 19.3074 58.6682 18.7477 58.1884 18.3318C57.7086 17.916 57.1088 17.7081 56.3891 17.7081C55.7014 17.7081 55.1176 17.908 54.6378 18.3078C54.174 18.7077 53.8861 19.2754 53.7741 20.0112H58.9081ZM71.2923 24.1615L74.1951 14.6133H78.5614L73.8113 28H68.7493L63.9991 14.6133H68.3894L71.2923 24.1615ZM102.453 14.4693C104.117 14.4693 105.436 14.9731 106.412 15.9807C107.403 16.9884 107.899 18.3878 107.899 20.1791V28H103.821V20.7309C103.821 19.8672 103.589 19.2035 103.125 18.7397C102.677 18.2598 102.053 18.0199 101.254 18.0199C100.454 18.0199 99.8224 18.2598 99.3585 18.7397C98.9107 19.2035 98.6868 19.8672 98.6868 20.7309V28H94.6084V20.7309C94.6084 19.8672 94.3765 19.2035 93.9127 18.7397C93.4649 18.2598 92.8411 18.0199 92.0414 18.0199C91.2417 18.0199 90.61 18.2598 90.1462 18.7397C89.6984 19.2035 89.4744 19.8672 89.4744 20.7309V28H85.3721V14.6133H89.4744V16.2926C89.8903 15.7328 90.4341 15.293 91.1058 14.9731C91.7775 14.6373 92.5372 14.4693 93.3849 14.4693C94.3925 14.4693 95.2881 14.6853 96.0718 15.1171C96.8715 15.5489 97.4953 16.1647 97.9431 16.9644C98.4069 16.2287 99.0387 15.6289 99.8384 15.1651C100.638 14.7013 101.51 14.4693 102.453 14.4693ZM116.862 28.1919C115.55 28.1919 114.367 27.912 113.311 27.3523C112.272 26.7925 111.448 25.9928 110.84 24.9532C110.248 23.9136 109.953 22.6981 109.953 21.3066C109.953 19.9312 110.256 18.7237 110.864 17.6841C111.472 16.6285 112.304 15.8208 113.359 15.261C114.415 14.7013 115.598 14.4214 116.91 14.4214C118.221 14.4214 119.405 14.7013 120.46 15.261C121.516 15.8208 122.348 16.6285 122.955 17.6841C123.563 18.7237 123.867 19.9312 123.867 21.3066C123.867 22.6821 123.555 23.8976 122.931 24.9532C122.324 25.9928 121.484 26.7925 120.412 27.3523C119.357 27.912 118.173 28.1919 116.862 28.1919ZM116.862 24.6413C117.646 24.6413 118.309 24.3534 118.853 23.7777C119.413 23.2019 119.693 22.3782 119.693 21.3066C119.693 20.2351 119.421 19.4114 118.877 18.8356C118.349 18.2598 117.694 17.972 116.91 17.972C116.11 17.972 115.446 18.2598 114.919 18.8356C114.391 19.3954 114.127 20.2191 114.127 21.3066C114.127 22.3782 114.383 23.2019 114.895 23.7777C115.422 24.3534 116.078 24.6413 116.862 24.6413ZM134.2 14.4693C135.768 14.4693 137.015 14.9811 137.943 16.0047C138.886 17.0123 139.358 18.4038 139.358 20.1791V28H135.28V20.7309C135.28 19.8352 135.048 19.1395 134.584 18.6437C134.12 18.1479 133.497 17.9 132.713 17.9C131.929 17.9 131.305 18.1479 130.842 18.6437C130.378 19.1395 130.146 19.8352 130.146 20.7309V28H126.043V14.6133H130.146V16.3886C130.562 15.7968 131.121 15.333 131.825 14.9971C132.529 14.6453 133.321 14.4693 134.2 14.4693ZM154.828 21.0907C154.828 21.4746 154.804 21.8744 154.756 22.2903H145.472C145.536 23.1219 145.8 23.7617 146.263 24.2095C146.743 24.6413 147.327 24.8572 148.015 24.8572C149.038 24.8572 149.75 24.4254 150.15 23.5618H154.516C154.292 24.4414 153.884 25.2331 153.293 25.9368C152.717 26.6405 151.989 27.1923 151.109 27.5922C150.23 27.992 149.246 28.1919 148.159 28.1919C146.847 28.1919 145.68 27.912 144.656 27.3523C143.632 26.7925 142.833 25.9928 142.257 24.9532C141.681 23.9136 141.393 22.6981 141.393 21.3066C141.393 19.9152 141.673 18.6997 142.233 17.6601C142.809 16.6205 143.608 15.8208 144.632 15.261C145.656 14.7013 146.831 14.4214 148.159 14.4214C149.454 14.4214 150.606 14.6933 151.613 15.237C152.621 15.7808 153.405 16.5565 153.964 17.5641C154.54 18.5717 154.828 19.7473 154.828 21.0907ZM150.63 20.0112C150.63 19.3074 150.39 18.7477 149.91 18.3318C149.43 17.916 148.83 17.7081 148.111 17.7081C147.423 17.7081 146.839 17.908 146.359 18.3078C145.896 18.7077 145.608 19.2754 145.496 20.0112H150.63ZM170.667 14.6133L162.27 34.3575H157.856L160.927 27.5442L155.481 14.6133H160.063L163.158 22.986L166.229 14.6133H170.667Z" fill="white"/>
<path d="M34.1422 5.85781C30.3647 2.08031 25.3422 0 20 0C14.6578 0 9.63531 2.08031 5.85781 5.85781C2.08031 9.63531 0 14.6578 0 20C0 25.3422 2.08039 30.3646 5.85781 34.1422C9.63523 37.9198 14.6578 40 20 40C25.3422 40 30.3647 37.9197 34.1422 34.1422C37.9197 30.3647 40 25.3422 40 20C40 14.6578 37.9196 9.63539 34.1422 5.85781Z" fill="#33CC95"/>
<g clip-path="url(#clip0)">
<path d="M20.5714 8V33.1429" stroke="white" stroke-width="2" stroke-linecap="round" stroke-linejoin="round"/>
<path d="M26.2857 12.5714H17.7143C16.6534 12.5714 15.636 12.9929 14.8859 13.743C14.1357 14.4931 13.7143 15.5106 13.7143 16.5714C13.7143 17.6323 14.1357 18.6497 14.8859 19.3999C15.636 20.15 16.6534 20.5714 17.7143 20.5714H23.4286C24.4894 20.5714 25.5068 20.9929 26.257 21.743C27.0071 22.4931 27.4286 23.5106 27.4286 24.5714C27.4286 25.6323 27.0071 26.6497 26.257 27.3999C25.5068 28.15 24.4894 28.5714 23.4286 28.5714H13.7143" stroke="white" stroke-width="2" stroke-linecap="round" stroke-linejoin="round"/>
</g>
<defs>
<clipPath id="clip0">
<rect width="27.4286" height="27.4286" fill="white" transform="translate(6.85714 6.85714)"/>
</clipPath>
</defs>
</svg>
